<svg xmlns="http://www.w3.org/2000/svg" height="511pt" version="1.1" viewBox="-1 1 511 511.99974" width="511pt">
<g id="surface1">
<path d="M 178.289062 197.339844 L 62.007812 197.339844 C 55.878906 197.339844 50.347656 201.011719 47.964844 206.65625 L 0.5 319.273438 L 89.394531 346.511719 L 178.289062 319.273438 L 255.382812 248.863281 Z M 178.289062 197.339844 " style=" stroke:none;fill-rule:nonzero;fill:rgb(56.470588%,37.254902%,65.882353%);fill-opacity:1;" />
<path d="M 332.472656 197.339844 L 448.753906 197.339844 C 454.882812 197.339844 460.414062 201.011719 462.796875 206.65625 L 510.261719 319.273438 L 421.367188 346.511719 L 332.472656 319.273438 L 255.382812 248.863281 Z M 332.472656 197.339844 " style=" stroke:none;fill-rule:nonzero;fill:rgb(56.470588%,37.254902%,65.882353%);fill-opacity:1;" />
<path d="M 178.289062 319.273438 L 0.5 319.273438 L 0.5 512 L 178.289062 512 L 255.382812 419.832031 Z M 178.289062 319.273438 " style=" stroke:none;fill-rule:nonzero;fill:rgb(65.098039%,42.745098%,76.078431%);fill-opacity:1;" />
<path d="M 332.472656 319.273438 L 510.261719 319.273438 L 510.261719 512 L 332.472656 512 L 255.382812 419.832031 Z M 332.472656 319.273438 " style=" stroke:none;fill-rule:nonzero;fill:rgb(65.098039%,42.745098%,76.078431%);fill-opacity:1;" />
<path d="M 178.289062 127.921875 L 178.289062 512 L 221.132812 512 L 255.382812 496.066406 L 289.628906 512 L 332.472656 512 L 332.472656 127.921875 Z M 178.289062 127.921875 " style=" stroke:none;fill-rule:nonzero;fill:rgb(65.098039%,42.745098%,76.078431%);fill-opacity:1;" />
<path d="M 359.371094 135.316406 L 261.316406 2.988281 C 258.363281 -0.996094 252.398438 -0.996094 249.445312 2.988281 L 151.390625 135.316406 C 147.777344 140.191406 151.257812 147.105469 157.328125 147.105469 L 353.433594 147.105469 C 359.503906 147.101562 362.984375 140.191406 359.371094 135.316406 Z M 359.371094 135.316406 " style=" stroke:none;fill-rule:nonzero;fill:rgb(56.470588%,37.254902%,65.882353%);fill-opacity:1;" />
<path d="M 277.730469 388.191406 L 233.03125 388.191406 C 226.460938 388.191406 221.136719 393.519531 221.136719 400.089844 L 221.136719 512 L 289.628906 512 L 289.628906 400.089844 C 289.628906 393.519531 284.300781 388.191406 277.730469 388.191406 Z M 277.730469 388.191406 " style=" stroke:none;fill-rule:nonzero;fill:rgb(56.470588%,37.254902%,65.882353%);fill-opacity:1;" />
<path d="M 206.527344 118.097656 C 202.261719 118.097656 198.800781 114.640625 198.800781 110.371094 L 198.800781 101.53125 C 198.800781 97.261719 202.261719 93.804688 206.527344 93.804688 C 210.796875 93.804688 214.253906 97.261719 214.253906 101.53125 L 214.253906 110.371094 C 214.253906 114.640625 210.796875 118.097656 206.527344 118.097656 Z M 206.527344 118.097656 " style=" stroke:none;fill-rule:nonzero;fill:rgb(22.745098%,28.235294%,29.019608%);fill-opacity:1;" />
<path d="M 304.234375 118.097656 C 299.964844 118.097656 296.507812 114.640625 296.507812 110.371094 L 296.507812 101.53125 C 296.507812 97.261719 299.964844 93.804688 304.234375 93.804688 C 308.503906 93.804688 311.960938 97.261719 311.960938 101.53125 L 311.960938 110.371094 C 311.960938 114.640625 308.503906 118.097656 304.234375 118.097656 Z M 304.234375 118.097656 " style=" stroke:none;fill-rule:nonzero;fill:rgb(22.745098%,28.235294%,29.019608%);fill-opacity:1;" />
<path d="M 255.382812 122.816406 C 248.453125 122.816406 241.9375 119.910156 237.503906 114.84375 C 234.695312 111.628906 235.023438 106.75 238.238281 103.941406 C 241.449219 101.132812 246.328125 101.457031 249.140625 104.671875 C 250.636719 106.382812 252.910156 107.363281 255.382812 107.363281 C 257.851562 107.363281 260.125 106.382812 261.621094 104.671875 C 264.429688 101.457031 269.3125 101.132812 272.523438 103.941406 C 275.738281 106.75 276.066406 111.628906 273.253906 114.84375 C 268.824219 119.910156 262.308594 122.816406 255.382812 122.816406 Z M 255.382812 122.816406 " style=" stroke:none;fill-rule:nonzero;fill:rgb(22.745098%,28.235294%,29.019608%);fill-opacity:1;" />
<path d="M 263.109375 189.328125 L 289.808594 189.328125 L 289.808594 235.351562 L 263.109375 235.351562 Z M 263.109375 189.328125 " style=" stroke:none;fill-rule:nonzero;fill:rgb(99.607843%,80.392157%,21.960784%);fill-opacity:1;" />
<path d="M 220.957031 250.804688 L 247.65625 250.804688 L 247.65625 296.832031 L 220.957031 296.832031 Z M 220.957031 250.804688 " style=" stroke:none;fill-rule:nonzero;fill:rgb(99.607843%,80.392157%,21.960784%);fill-opacity:1;" />
<path d="M 263.109375 250.804688 L 289.808594 250.804688 L 289.808594 296.832031 L 263.109375 296.832031 Z M 263.109375 250.804688 " style=" stroke:none;fill-rule:nonzero;fill:rgb(99.607843%,80.392157%,21.960784%);fill-opacity:1;" />
<path d="M 220.957031 189.328125 L 247.65625 189.328125 L 247.65625 235.351562 L 220.957031 235.351562 Z M 220.957031 189.328125 " style=" stroke:none;fill-rule:nonzero;fill:rgb(99.607843%,80.392157%,21.960784%);fill-opacity:1;" />
<path d="M 429.625 361.886719 L 456.324219 361.886719 L 456.324219 407.910156 L 429.625 407.910156 Z M 429.625 361.886719 " style=" stroke:none;fill-rule:nonzero;fill:rgb(99.607843%,80.392157%,21.960784%);fill-opacity:1;" />
<path d="M 387.472656 423.363281 L 414.171875 423.363281 L 414.171875 469.386719 L 387.472656 469.386719 Z M 387.472656 423.363281 " style=" stroke:none;fill-rule:nonzero;fill:rgb(99.607843%,80.392157%,21.960784%);fill-opacity:1;" />
<path d="M 429.625 423.363281 L 456.324219 423.363281 L 456.324219 469.386719 L 429.625 469.386719 Z M 429.625 423.363281 " style=" stroke:none;fill-rule:nonzero;fill:rgb(99.607843%,80.392157%,21.960784%);fill-opacity:1;" />
<path d="M 387.472656 361.886719 L 414.171875 361.886719 L 414.171875 407.910156 L 387.472656 407.910156 Z M 387.472656 361.886719 " style=" stroke:none;fill-rule:nonzero;fill:rgb(99.607843%,80.392157%,21.960784%);fill-opacity:1;" />
<path d="M 96.59375 361.886719 L 123.292969 361.886719 L 123.292969 407.910156 L 96.59375 407.910156 Z M 96.59375 361.886719 " style=" stroke:none;fill-rule:nonzero;fill:rgb(99.607843%,80.392157%,21.960784%);fill-opacity:1;" />
<path d="M 54.441406 423.363281 L 81.140625 423.363281 L 81.140625 469.386719 L 54.441406 469.386719 Z M 54.441406 423.363281 " style=" stroke:none;fill-rule:nonzero;fill:rgb(99.607843%,80.392157%,21.960784%);fill-opacity:1;" />
<path d="M 96.59375 423.363281 L 123.292969 423.363281 L 123.292969 469.386719 L 96.59375 469.386719 Z M 96.59375 423.363281 " style=" stroke:none;fill-rule:nonzero;fill:rgb(99.607843%,80.392157%,21.960784%);fill-opacity:1;" />
<path d="M 54.441406 361.886719 L 81.140625 361.886719 L 81.140625 407.910156 L 54.441406 407.910156 Z M 54.441406 361.886719 " style=" stroke:none;fill-rule:nonzero;fill:rgb(99.607843%,80.392157%,21.960784%);fill-opacity:1;" />
<path d="M 332.472656 319.273438 L 363.574219 319.273438 L 363.574219 512 L 332.472656 512 Z M 332.472656 319.273438 " style=" stroke:none;fill-rule:nonzero;fill:rgb(56.470588%,37.254902%,65.882353%);fill-opacity:1;" />
<path d="M 332.472656 197.339844 L 363.574219 197.339844 L 363.574219 319.273438 L 332.472656 319.273438 Z M 332.472656 197.339844 " style=" stroke:none;fill-rule:nonzero;fill:rgb(50.588235%,30.196078%,60%);fill-opacity:1;" />
<path d="M 147.1875 319.273438 L 178.289062 319.273438 L 178.289062 512 L 147.1875 512 Z M 147.1875 319.273438 " style=" stroke:none;fill-rule:nonzero;fill:rgb(56.470588%,37.254902%,65.882353%);fill-opacity:1;" />
<path d="M 147.1875 197.339844 L 178.289062 197.339844 L 178.289062 319.273438 L 147.1875 319.273438 Z M 147.1875 197.339844 " style=" stroke:none;fill-rule:nonzero;fill:rgb(50.588235%,30.196078%,60%);fill-opacity:1;" />
</g>
</svg>