<svg height="512pt" viewBox="0 0 512 512" width="512pt" xmlns="http://www.w3.org/2000/svg"><path d="m512 256c0 141.386719-114.613281 256-256 256s-256-114.613281-256-256 114.613281-256 256-256 256 114.613281 256 256zm0 0" fill="#1a2b63"/><path d="m436.472656 256c0 99.671875-80.800781 180.472656-180.472656 180.472656s-180.472656-80.800781-180.472656-180.472656 80.800781-180.472656 180.472656-180.472656 180.472656 80.800781 180.472656 180.472656zm0 0" fill="#293d7c"/><path d="m166.289062 182.964844c-63.164062 0-114.371093 51.203125-114.371093 114.367187v46.660157c0 18.503906-3.128907 36.667968-9.082031 53.796874 17.050781 25.578126 38.578124 47.914063 63.46875 65.886719h10.449218c90.519532 0 163.902344-73.382812 163.902344-163.902343v-2.4375c0-63.167969-51.203125-114.371094-114.367188-114.371094zm0 0" fill="#c3ddf4"/><path d="m280.65625 297.332031c0-59.941406-46.117188-109.105469-104.804688-113.964843 7.480469 45.085937 28.730469 86.636718 61.695313 119.597656 12.074219 12.078125 25.308594 22.570312 39.441406 31.402344 2.394531-11.152344 3.667969-22.722657 3.667969-34.59375zm0 0" fill="#aec1ed"/><path d="m228.28125 250.945312c0-14.957031-9.675781-27.078124-21.617188-27.078124-11.9375 0-21.617187 12.121093-21.617187 27.078124 0 14.953126 9.679687 27.078126 21.617187 27.078126 11.941407 0 21.617188-12.125 21.617188-27.078126zm0 0" fill="#1a2b63"/><path d="m145.011719 250.945312c0-14.957031-9.675781-27.078124-21.617188-27.078124-11.9375 0-21.617187 12.121093-21.617187 27.078124 0 14.953126 9.679687 27.078126 21.617187 27.078126 11.941407 0 21.617188-12.125 21.617188-27.078126zm0 0" fill="#1a2b63"/><path d="m506.121094 310.800781c-3.152344 14.449219-7.53125 28.449219-13 41.871094h-99.359375c-113.730469 0-205.921875-92.191406-205.921875-205.921875v-3.058594c0-68.261718 47.589844-125.402344 111.398437-140.050781 10.382813-2.378906 21.191407-3.640625 32.292969-3.640625 71.527344 0 130.859375 52.28125 141.847656 120.730469 1.210938 7.46875 1.832032 15.140625 1.832032 22.960937v58.617188c0 38.691406 10.890624 76.210937 30.910156 108.492187zm0 0" fill="#d9eafc"/><path d="m247.839844 146.753906v-3.066406c0-69.066406 48.730468-126.742188 113.6875-140.542969-9.675782-2.054687-19.710938-3.144531-30-3.144531-79.355469 0-143.6875 64.332031-143.6875 143.6875v3.066406c0 113.722656 92.191406 205.917969 205.917968 205.917969h60c-113.726562 0-205.917968-92.195313-205.917968-205.917969zm0 0" fill="#c3ddf4"/><g fill="#1a2b63"><path d="m388.277344 88.820312c0-18.679687-12.085938-33.820312-26.996094-33.820312-14.914062 0-27 15.140625-27 33.820312 0 18.675782 12.085938 33.816407 27 33.816407 14.910156 0 26.996094-15.140625 26.996094-33.816407zm0 0"/><path d="m284.277344 88.820312c0-18.679687-12.085938-33.820312-26.996094-33.820312-14.914062 0-27 15.140625-27 33.820312 0 18.675782 12.085938 33.816407 27 33.816407 14.910156 0 26.996094-15.140625 26.996094-33.816407zm0 0"/></g></svg>