<?xml version="1.0" encoding="iso-8859-1"?>
<!-- Generator: Adobe Illustrator 19.0.0, SVG Export Plug-In . SVG Version: 6.00 Build 0)  -->
<svg xmlns="http://www.w3.org/2000/svg" xmlns:xlink="http://www.w3.org/1999/xlink" version="1.1" id="Layer_1" x="0px" y="0px" viewBox="0 0 512 512" style="enable-background:new 0 0 512 512;" xml:space="preserve" width="512" height="512">
<g>
	<path style="fill:#85B4CF;" d="M472.643,125.841l-209-123.748C261.286,0.698,258.643,0,256,0c-2.643,0-5.286,0.697-7.643,2.093   l-209,123.748c-4.561,2.7-7.357,7.607-7.357,12.907v302.368C32,449.4,38.716,456,47,456h209h209c8.284,0,15-6.6,15-14.884V138.748   C480,133.448,477.203,128.541,472.643,125.841z"/>
	<path style="fill:#4D6F82;" d="M472.643,125.841l-209-123.748C261.286,0.698,259,0,256,0v456h209c8.284,0,15-6.6,15-14.884V138.748   C480,133.448,477.203,128.541,472.643,125.841z"/>
	<g>
		<g>
			<path style="fill:#4E6682;" d="M134,126.737c-8.284,0-15,6.716-15,15v240.5c0,8.284,6.716,15,15,15s15-6.716,15-15v-240.5     C149,133.453,142.284,126.737,134,126.737z"/>
		</g>
		<g>
			<path style="fill:#1F3145;" d="M378,126.737c-8.284,0-15,6.716-15,15v240.5c0,8.284,6.716,15,15,15s15-6.716,15-15v-240.5     C393,133.453,386.284,126.737,378,126.737z"/>
		</g>
	</g>
	<path style="fill:#D69E76;" d="M326.758,203.715l-50.623-21.042c-12.762-5.325-27.397-5.325-40.126-0.009l-50.755,21.047   c-5.602,2.323-9.254,7.791-9.254,13.856V381c0,8.284,6.716,15,15,15h130c8.284,0,15-6.716,15-15V217.566   C336,211.506,332.354,206.041,326.758,203.715z"/>
	<path style="fill:#9E7059;" d="M326.758,203.715l-50.623-21.042c-6.381-2.663-13.23-3.994-20.075-3.995L256,396h65   c8.284,0,15-6.716,15-15V217.566C336,211.506,332.354,206.041,326.758,203.715z"/>
	<g>
		<path style="fill:#1F3145;" d="M302.512,282.812c-2.8-2.79-6.659-4.39-10.609-4.39s-7.82,1.6-10.61,4.39s-4.39,6.66-4.39,10.61    c0,3.95,1.6,7.82,4.39,10.61c2.8,2.79,6.66,4.39,10.61,4.39c3.939,0,7.81-1.6,10.609-4.39c2.79-2.8,4.391-6.66,4.391-10.61    C306.903,289.472,305.302,285.612,302.512,282.812z"/>
	</g>
	<path style="fill:#4E6682;" d="M472.643,125.969l-209-123.812c-4.713-2.79-10.572-2.822-15.285-0.032l-209,123.86   C34.798,128.685,32.002,133,32,139h448C479.998,133,477.202,128.668,472.643,125.969z"/>
	<path style="fill:#1F3145;" d="M472.643,125.969l-209-123.812C261.286,0.762,259,0.056,256,0.048V139h224   C479.998,133,477.202,128.668,472.643,125.969z"/>
	<path style="fill:#4E6682;" d="M394,370H118c-8.284,0-15,6.716-15,15v54c0,8.284,6.716,15,15,15h276c8.284,0,15-6.716,15-15v-54   C409,376.716,402.284,370,394,370z"/>
	<path style="fill:#1F3145;" d="M394,370H256v84h138c8.284,0,15-6.716,15-15v-54C409,376.716,402.284,370,394,370z"/>
	<path style="fill:#F0F3F5;" d="M512,441c0-8.284-6.716-15-15-15H15c-8.284,0-15,6.716-15,15v56c0,8.284,6.716,15,15,15h482   c8.284,0,15-6.716,15-15V441z"/>
	<path style="fill:#AED4E6;" d="M512,441c0-8.284-6.716-15-15-15H256v86h241c8.284,0,15-6.716,15-15V441z"/>
	<path style="fill:#F0F3F5;" d="M481,124H31c-8.284,0-15,6.716-15,15s6.716,15,15,15h450c8.284,0,15-6.716,15-15   S489.284,124,481,124z"/>
	<path style="fill:#AED4E6;" d="M481,124H256v30h225c8.284,0,15-6.716,15-15S489.284,124,481,124z"/>
</g>















</svg>
