<svg height="512pt" viewBox="0 0 512 512" width="512pt" xmlns="http://www.w3.org/2000/svg"><path d="m512 471.199219c-26.398438 10.800781-55 40.800781-119.5 40.800781-31.5 0-61.800781-7.199219-89.398438-21-15-7.800781-30.902343-11.398438-47.101562-11.398438-16.199219-.300781-32.398438 3.597657-47.699219 11.097657-110.101562 55.5-193-16-208.300781-20.5 2.859375-4.417969 50.203125-44.695313 75.398438-121.5l30.601562-2.699219c-8.402344 0-15-21.601562-15-30v-150c0-90.902344 74.097656-166 165-166s165 75.097656 165 166v150c0 8.398438-6.597656 30-15 30l30.902344 2.398438c25.199218 75.601562 72.097656 118.300781 75.097656 122.800781zm0 0" fill="#a8ebfa"/><path d="m512 471.199219c-26.398438 10.800781-55 40.800781-119.5 40.800781-31.5 0-61.800781-7.199219-89.398438-21-15-7.800781-30.902343-11.398438-47.101562-11.398438v-479.601562c90.902344 0 165 75.097656 165 166v150c0 8.398438-6.597656 30-15 30l30.902344 2.398438c25.199218 75.601562 72.097656 118.300781 75.097656 122.800781zm0 0" fill="#76e2f8"/><path d="m181 121h30v30h-30zm0 0" fill="#463b85"/><path d="m301 121h30v30h-30zm0 0" fill="#392e6e"/><path d="m286 211v60c0 16.5-13.5 30-30 30s-30-13.5-30-30v-60c0-16.5 13.5-30 30-30s30 13.5 30 30zm0 0" fill="#463b85"/><path d="m286 211v60c0 16.5-13.5 30-30 30v-120c16.5 0 30 13.5 30 30zm0 0" fill="#392e6e"/><path d="m421 316c0 8.277344-6.722656 15-15 15s-15-6.722656-15-15v-75h-30v75c0 24.8125 20.1875 45 45 45 12.046875 0 22.945312-4.820312 31.03125-12.554688-9.460938-28.53125-16.03125-61.695312-16.03125-99.644531zm0 0" fill="#14c6ef"/><path d="m151 316v-75h-30v75c0 8.277344-6.722656 15-15 15s-15-6.722656-15-15v-67.199219c0 38.34375-6.425781 71.519531-15.726562 99.894531 8.058593 7.574219 18.824218 12.304688 30.726562 12.304688 24.8125 0 45-20.1875 45-45zm0 0" fill="#76e2f8"/></svg>