<?xml version="1.0" encoding="UTF-8"?>
<svg xmlns="http://www.w3.org/2000/svg" xmlns:xlink="http://www.w3.org/1999/xlink" width="512" height="512" viewBox="0 0 60 60" version="1.1"><!-- Generator: Sketch 51.3 (57544) - http://www.bohemiancoding.com/sketch --><title>006 - Moon</title><desc>Created with Sketch.</desc><defs/><g id="Page-1" stroke="none" stroke-width="1" fill="none" fill-rule="evenodd"><g id="006---Moon" fill-rule="nonzero"><path d="M59,30 C59.0008079,32.8595075 58.5796034,35.7034799 57.75,38.44 C57.63,38.85 57.49,39.25 57.35,39.65 C54.0490011,49.0108232 46.1886256,56.0322871 36.516121,58.2603488 C26.8436164,60.4884106 16.7035747,57.6133433 9.64,50.64 C9.36,50.37 9.09,50.1 8.83,49.82 C4.74592842,45.4725889 2.10844266,39.9670557 1.28,34.06 C1.23,33.67 1.18,33.29 1.15,32.9 C1.04939237,31.936616 0.999323758,30.9686228 1,30 C1.00496761,13.9858004 13.9858004,1.00496761 30,1 C32.5743301,0.995505979 35.1374818,1.33860503 37.62,2.02 C48.4002449,4.95725935 56.5342292,13.8264532 58.53,24.82 C58.61,25.24 58.67,25.66 58.73,26.08 C58.9111833,27.378784 59.001403,28.6886399 59,30 Z" id="Shape" fill="#CAD9FC"/><path d="M52,24 C52.0065299,34.0655175 45.731527,43.0657092 36.2847323,46.5402961 C26.8379376,50.0148829 16.2266806,47.2255572 9.70964582,39.5546418 C3.19261109,31.8837264 2.15458963,20.9611981 7.11,12.2 C12.5944643,5.1241048 21.0474864,0.988069483 30,1 C32.5743301,0.995505979 35.1374818,1.33860503 37.62,2.02 C46.3575291,5.83545268 52.0037328,14.4657418 52,24 Z" id="Shape" fill="#E8EDFC"/><circle id="Oval" fill="#A4C2F7" cx="31" cy="13" r="6"/><circle id="Oval" fill="#A4C2F7" cx="14" cy="19" r="3"/><path d="M16,41 C15.9961009,45.2654981 13.0048203,48.9451487 8.83,49.82 C4.74592842,45.4725889 2.10844266,39.9670557 1.28,34.06 C3.96556843,31.8407268 7.69140837,31.3724564 10.842624,32.8581519 C13.9938397,34.3438473 16.0032837,37.5161171 16,41 Z" id="Shape" fill="#A4C2F7"/><circle id="Oval" fill="#A4C2F7" cx="28" cy="34" r="7"/><path d="M59,30 C59.0008079,32.8595075 58.5796034,35.7034799 57.75,38.44 C56.8808171,38.8112976 55.9451653,39.0018304 55,39 C54.4988999,39.0028068 53.9990795,38.9491348 53.51,38.84 C50.2921807,38.14241 47.9954859,35.2965946 47.9930791,32.0040292 C47.9906722,28.7114638 50.283204,25.8622937 53.5,25.16 L53.51,25.16 C53.9990795,25.0508652 54.4988999,24.9971932 55,25 C56.3212906,24.9940322 57.6163044,25.368996 58.73,26.08 C58.9111833,27.378784 59.001403,28.6886399 59,30 Z" id="Shape" fill="#7FACFA"/><path d="M56,30 C56.0008079,32.8595075 55.5796034,35.7034799 54.75,38.44 C54.349632,38.610607 53.9345931,38.7444905 53.51,38.84 C50.2921807,38.14241 47.9954859,35.2965946 47.9930791,32.0040292 C47.9906722,28.7114638 50.283204,25.8622937 53.5,25.16 L53.51,25.16 C54.2980602,25.3346311 55.0494232,25.6460067 55.73,26.08 C55.9111833,27.378784 56.001403,28.6886399 56,30 Z" id="Shape" fill="#A4C2F7"/><circle id="Oval" fill="#A4C2F7" cx="46" cy="17" r="2"/><circle id="Oval" fill="#A4C2F7" cx="37" cy="48" r="4"/><circle id="Oval" fill="#3F5C6C" cx="39" cy="25" r="1"/><circle id="Oval" fill="#3F5C6C" cx="43" cy="39" r="1"/><circle id="Oval" fill="#3F5C6C" cx="22" cy="48" r="1"/><circle id="Oval" fill="#3F5C6C" cx="18" cy="10" r="1"/><circle id="Oval" fill="#3F5C6C" cx="8" cy="28" r="1"/><circle id="Oval" fill="#3F5C6C" cx="47" cy="48" r="1"/><path d="M1.28,34.06 C2.10844266,39.9670557 4.74592842,45.4725889 8.83,49.82 C9.09,50.1 9.36,50.37 9.64,50.64 C15.0539953,56.009596 22.3748007,59.0155849 30,59 C30.443,59 30.877,58.967 31.315,58.948 C24.2839169,58.5537925 17.6406126,55.598367 12.64,50.64 C12.36,50.37 12.09,50.1 11.83,49.82 C7.74592842,45.4725889 5.10844266,39.9670557 4.28,34.06 C4.23,33.67 4.18,33.29 4.15,32.9 C4.04939237,31.936616 3.99932376,30.9686228 4,30 C4.00173575,14.6035531 16.0347701,1.89221175 31.408,1.047 C30.94,1.024 30.473,1 30,1 C13.9858004,1.00496761 1.00496761,13.9858004 1,30 C0.999323758,30.9686228 1.04939237,31.936616 1.15,32.9 C1.18,33.29 1.23,33.67 1.28,34.06 Z" id="Shape" fill="#FFFFFF"/><path d="M0,30 C0.0152302936,25.5000061 1.03647865,21.0603603 2.989,17.006 C3.59543618,15.7408717 4.28424982,14.516908 5.051,13.342 C5.451,12.766 5.884,12.214 6.299,11.649 C6.70879987,11.0798067 7.15931331,10.5410621 7.647,10.037 C9.50518025,7.93017417 11.6612988,6.10623259 14.047,4.623 C16.419835,3.1167214 18.9973138,1.96017335 21.7,1.189 C24.4023022,0.42920803 27.1930701,0.029422126 30,0 L30,2 C27.3787875,2.02876715 24.7727543,2.40230641 22.249,3.111 C19.7285991,3.8291945 17.3248825,4.90694331 15.112,6.311 C12.8845731,7.69493223 10.8718754,9.39767317 9.138,11.365 C8.68146476,11.8361381 8.26094936,12.3408903 7.88,12.875 C7.493,13.403 7.086,13.916 6.714,14.454 C5.99881369,15.5506682 5.35643101,16.6931273 4.791,17.874 C2.96840327,21.6574202 2.0148077,25.8004872 2,30 L0,30 Z" id="Shape" fill="#FFFFFF"/><path d="M1.456,25.027 C1.19096929,24.9844678 0.920009207,25.0510422 0.704865527,25.2115521 C0.489721847,25.3720621 0.348723184,25.6128336 0.314,25.879 L0.159,26.9 L0.1,27.934 L0,30 L2,30 L2.1,28.071 L2.15,27.106 L2.297,26.152 C2.36329361,25.6122603 1.99243565,25.1161661 1.456,25.027 Z" id="Shape" fill="#428DFF"/><path d="M30,2 L30,0 C27.1930701,0.029422126 24.4023022,0.42920803 21.7,1.189 C18.9983543,1.96044248 16.4219033,3.1169827 14.05,4.623 C11.6642988,6.10623259 9.50818025,7.93017417 7.65,10.037 C7.16162439,10.540993 6.71044109,11.0797393 6.3,11.649 C5.885,12.214 5.45,12.766 5.052,13.342 C4.28524982,14.516908 3.59643618,15.7408717 2.99,17.006 L2.542,17.938 C2.4274493,18.1836683 2.4199952,18.4658596 2.52141652,18.7172328 C2.62283783,18.968606 2.82403679,19.1666122 3.077,19.264 C3.57990196,19.4569797 4.14656444,19.2298788 4.377,18.743 L4.796,17.874 C5.36143101,16.6931273 6.00381369,15.5506682 6.719,14.454 C7.091,13.916 7.498,13.403 7.885,12.875 C8.2661104,12.3422689 8.68662209,11.8388582 9.143,11.369 C10.8768754,9.40167317 12.8895731,7.69893223 15.117,6.315 C17.3298825,4.91094331 19.7335991,3.8331945 22.254,3.115 C24.7759597,2.40538805 27.3802865,2.03050755 30,2 Z" id="Shape" fill="#428DFF"/><path d="M1.154,21.832 C1.08931344,22.0963832 1.12494273,22.3753606 1.254,22.615 L1.368,22.771 C1.41238559,22.8220364 1.46352334,22.8667819 1.52,22.904 C1.56809991,22.9450551 1.62201905,22.9787546 1.68,23.004 C1.74125466,23.030981 1.80442837,23.0533759 1.869,23.071 C2.12667079,23.1296314 2.39687894,23.0923 2.629,22.966 C3.09142766,22.6885374 3.24476207,22.0908006 2.973,21.625 C2.90844459,21.5136334 2.82484284,21.4144621 2.726,21.332 C2.62782814,21.2468412 2.51357566,21.1822342 2.39,21.142 C2.1337464,21.0634804 1.85715746,21.0860225 1.617,21.205 C1.38800941,21.3469332 1.22226743,21.5713829 1.154,21.832 Z" id="Shape" fill="#428DFF"/><path d="M30,60 C15.054482,59.9962303 2.38879548,48.9974181 0.29,34.2 C0.0994829979,32.8080641 0.00259862589,31.4049112 -3.55271368e-15,30 C-3.68696244e-15,29.4477153 0.44771525,29 1,29 C1.55228475,29 2,29.4477153 2,30 C2.00215906,31.3129321 2.09269706,32.6242297 2.271,33.925 C4.23292595,47.7333717 16.0529478,57.9958055 30,58 C37.4276887,58.0053112 44.5526845,55.0570252 49.8048549,49.8048549 C55.0570252,44.5526845 58.0053112,37.4276887 58,30 C58.0008529,28.7351713 57.9139778,27.4718065 57.74,26.219 C55.826809,12.3579104 43.9924781,2.0256949 30,2 C29.4477153,2 29,1.55228475 29,1 C29,0.44771525 29.4477153,1.01453063e-16 30,0 C44.9910189,0.0284428592 57.6699961,11.0970594 59.722,25.947 C59.9081807,27.2899561 60.0010699,28.6442002 60,30 C60.0053107,37.9581216 56.846311,45.591825 51.219068,51.219068 C45.591825,56.846311 37.9581216,60.0053107 30,60 Z" id="Shape" fill="#428DFF"/><path d="M31,20 C27.1340068,20 24,16.8659932 24,13 C24,9.13400675 27.1340068,6 31,6 C34.8659932,6 38,9.13400675 38,13 C37.9955914,16.8641657 34.8641657,19.9955914 31,20 Z M31,8 C28.2385763,8 26,10.2385763 26,13 C26,15.7614237 28.2385763,18 31,18 C33.7614237,18 36,15.7614237 36,13 C35.9966939,10.2399468 33.7600532,8.00330612 31,8 Z" id="Shape" fill="#428DFF"/><path d="M14,23 C11.790861,23 10,21.209139 10,19 C10,16.790861 11.790861,15 14,15 C16.209139,15 18,16.790861 18,19 C18,21.209139 16.209139,23 14,23 Z M14,17 C12.8954305,17 12,17.8954305 12,19 C12,20.1045695 12.8954305,21 14,21 C15.1045695,21 16,20.1045695 16,19 C16,17.8954305 15.1045695,17 14,17 Z" id="Shape" fill="#428DFF"/><path d="M8.83,50.82 C8.55283494,50.8191084 8.28847178,50.7032232 8.1,50.5 C3.868731,46.0084496 1.13931905,40.3119816 0.29,34.2 C0.242202607,33.857302 0.374961609,33.5142467 0.641,33.293 C3.84826149,30.6482543 8.35724202,30.2635594 11.9661741,32.3267645 C15.5751062,34.3899695 17.5312183,38.4707196 16.8793268,42.5763552 C16.2274354,46.6819907 13.1035157,49.956135 9.033,50.8 C8.96619195,50.8135687 8.89817149,50.8202702 8.83,50.82 Z M2.356,34.491 C3.20322466,39.7890918 5.56916389,44.7276556 9.167,48.708 C12.235502,47.8425393 14.4971897,45.2377141 14.9235083,42.0781289 C15.349827,38.9185436 13.8593809,35.807448 11.1299848,34.1596846 C8.40058878,32.5119213 4.95335788,32.6420925 2.356,34.491 Z" id="Shape" fill="#428DFF"/><path d="M28,42 C23.581722,42 20,38.418278 20,34 C20,29.581722 23.581722,26 28,26 C32.418278,26 36,29.581722 36,34 C35.9950401,38.4162219 32.4162219,41.9950401 28,42 Z M28,28 C24.6862915,28 22,30.6862915 22,34 C22,37.3137085 24.6862915,40 28,40 C31.3137085,40 34,37.3137085 34,34 C33.9966926,30.6876624 31.3123376,28.0033074 28,28 Z" id="Shape" fill="#428DFF"/><path d="M55,40 C50.581722,40 47,36.418278 47,32 C47,27.581722 50.581722,24 55,24 C56.511932,23.9961879 57.993332,24.4254434 59.269,25.237 C59.5143333,25.3934597 59.6793512,25.6490184 59.721,25.937 C59.9079896,27.2832369 60.0012141,28.6408394 60,30 C60.00077,32.9577596 59.5650772,35.8994442 58.707,38.73 C58.6213647,39.0124835 58.4153026,39.242702 58.144,39.359 C57.150527,39.7843495 56.0806964,40.002467 55,40 Z M55,26 C52.6234853,26.0045542 50.4736286,27.4113526 49.5179797,29.5872611 C48.5623307,31.7631697 48.981016,34.2980598 50.585605,36.0510963 C52.190194,37.8041329 54.6782438,38.4448927 56.93,37.685 C57.6409186,35.1852631 58.0010289,32.598863 58,30 C57.9995746,28.8969845 57.9327873,27.7949936 57.8,26.7 C56.9384095,26.2400191 55.9766885,25.9995889 55,26 Z" id="Shape" fill="#428DFF"/><path d="M46,20 C44.3431458,20 43,18.6568542 43,17 C43,15.3431458 44.3431458,14 46,14 C47.6568542,14 49,15.3431458 49,17 C49,18.6568542 47.6568542,20 46,20 Z M46,16 C45.4477153,16 45,16.4477153 45,17 C45,17.5522847 45.4477153,18 46,18 C46.5522847,18 47,17.5522847 47,17 C47,16.4477153 46.5522847,16 46,16 Z" id="Shape" fill="#428DFF"/><path d="M37,53 C34.2385763,53 32,50.7614237 32,48 C32,45.2385763 34.2385763,43 37,43 C39.7614237,43 42,45.2385763 42,48 C41.9966939,50.7600532 39.7600532,52.9966939 37,53 Z M37,45 C35.3431458,45 34,46.3431458 34,48 C34,49.6568542 35.3431458,51 37,51 C38.6568542,51 40,49.6568542 40,48 C40,46.3431458 38.6568542,45 37,45 Z" id="Shape" fill="#428DFF"/><circle id="Oval" fill="#428DFF" cx="39" cy="25" r="1"/><circle id="Oval" fill="#428DFF" cx="43" cy="39" r="1"/><circle id="Oval" fill="#428DFF" cx="22" cy="48" r="1"/><circle id="Oval" fill="#428DFF" cx="18" cy="10" r="1"/><circle id="Oval" fill="#428DFF" cx="8" cy="28" r="1"/><circle id="Oval" fill="#428DFF" cx="47" cy="48" r="1"/></g></g></svg>
